<?xml version="1.0" standalone="no"?>
<!DOCTYPE svg PUBLIC "-//W3C//DTD SVG 20010904//EN"
 "http://www.w3.org/TR/2001/REC-SVG-20010904/DTD/svg10.dtd">
<svg version="1.0" xmlns="http://www.w3.org/2000/svg"
 width="68.000000pt" height="68.000000pt" viewBox="0 0 680.000000 680.000000"
 preserveAspectRatio="xMidYMid meet">
<metadata>
Created by potrace 1.13, written by Peter Selinger 2001-2015
</metadata>
<g transform="translate(0.000000,680.000000) scale(0.100000,-0.100000)"
fill="#ffffff" stroke="none">
<path d="M2575 4120 l-50 -50 348 -348 347 -347 -347 -347 -348 -348 53 -52
52 -53 344 350 344 350 351 -350 351 -350 50 50 50 50 -345 345 c-190 190
-345 350 -345 355 0 5 154 164 342 352 l343 343 -50 50 -50 50 -347 -347 -348
-348 -348 348 -347 347 -50 -50z"/>
</g>
</svg>
